<svg width="158" height="153" viewBox="0 0 158 153" fill="none" xmlns="http://www.w3.org/2000/svg">
<path d="M97.7378 115.754L66.4094 101.171C63.3235 99.7369 61.9903 96.1031 63.4963 93.0909L78.5556 62.7539C80.0369 59.7656 83.7894 58.4747 86.9 59.933C91.1463 61.9172 93.5903 63.0408 93.5903 63.0408L93.5656 36.9352L97.6885 36.9112L97.7131 64.9055C97.7131 64.9055 111.884 70.6908 118.228 74.4919C119.142 75.0417 120.747 76.1175 121.413 77.9344C121.932 79.3927 121.907 81.0661 121.166 82.5483L106.107 112.885C104.576 115.921 100.824 117.212 97.7378 115.754V115.754Z" fill="white"/>
<path d="M153.729 35.8116C152.717 34.8314 151.359 34.8553 151.359 34.8553C151.359 34.8553 122.425 36.4331 107.44 36.7678C104.157 36.8395 100.898 36.9112 97.6637 36.9352V64.9533C96.3059 64.3317 94.9234 63.6862 93.5656 63.0647C93.5656 54.3628 93.5409 36.9591 93.5409 36.9591C86.3815 37.0547 71.5197 36.4331 71.5197 36.4331C71.5197 36.4331 36.6115 34.7358 32.8097 34.4011C30.3903 34.2577 27.255 33.8991 23.1815 34.7597C21.0337 35.19 14.9112 36.5288 9.89967 41.1905C-1.2097 50.7769 1.62936 66.0291 1.97499 68.3241C2.39467 71.1211 3.67842 78.8906 9.80092 85.6561C21.1078 99.0675 45.4497 98.7567 45.4497 98.7567C45.4497 98.7567 48.4369 105.666 53.004 112.025C59.1759 119.938 65.5206 126.105 71.6925 126.847C87.2456 126.847 118.327 126.823 118.327 126.823C118.327 126.823 121.29 126.847 125.314 124.36C128.77 122.328 131.856 118.766 131.856 118.766C131.856 118.766 135.041 115.467 139.484 107.937C140.842 105.618 141.978 103.371 142.965 101.243C142.965 101.243 156.593 73.2487 156.593 45.9956C156.321 37.748 154.223 36.2897 153.729 35.8116ZM31.0075 84.6042C24.6134 82.5722 21.8978 80.1338 21.8978 80.1338C21.8978 80.1338 17.1825 76.9303 14.8125 70.6191C10.739 60.0525 14.4669 53.5978 14.4669 53.5978C14.4669 53.5978 16.5406 48.2189 23.9715 46.4259C27.3784 45.5414 31.6247 45.6848 31.6247 45.6848C31.6247 45.6848 33.3775 59.8852 35.5006 68.2045C37.2781 75.1852 41.6231 86.7797 41.6231 86.7797C41.6231 86.7797 35.1797 86.0386 31.0075 84.6042ZM105.144 110.327C105.144 110.327 103.638 113.794 100.305 114.009C98.8734 114.105 97.7625 113.722 97.7625 113.722C97.7625 113.722 97.6884 113.698 96.454 113.22L68.5818 100.072C68.5818 100.072 65.8909 98.7089 65.4219 96.3422C64.8787 94.4058 66.0884 92.0152 66.0884 92.0152L79.4937 65.2641C79.4937 65.2641 80.6787 62.9452 82.5056 62.1562C82.6537 62.0845 83.0734 61.9172 83.6165 61.7977C85.6162 61.2956 88.0603 62.467 88.0603 62.467L115.389 75.3047C115.389 75.3047 118.5 76.6673 119.167 79.1775C119.636 80.9466 119.043 82.5244 118.722 83.2894C117.167 86.9709 105.144 110.327 105.144 110.327Z" fill="#609926"/>
<path d="M102.8 80.2138L109.338 83.5452L100.704 100.492L94.6179 97.3909L96.1604 93.2448L102.8 80.2138ZM98.9939 89.6972L101.657 91.0145C101.05 92.2049 100.318 93.2129 99.4606 94.0386C98.618 94.8718 97.661 95.4824 96.5894 95.8702C95.5331 96.2658 94.3807 96.402 93.1326 96.279C91.8844 96.1559 90.5666 95.7409 89.1791 95.0339C88.0932 94.4806 87.1664 93.8573 86.399 93.1636C85.6466 92.4778 85.0689 91.71 84.666 90.8602C84.2834 90.0077 84.0859 89.0718 84.0732 88.0527L85.5599 83.6808L89.0665 85.4675C88.6515 86.2819 88.4091 87.0001 88.3391 87.6222C88.2692 88.2441 88.3407 88.7936 88.5537 89.2703C88.772 89.7367 89.1008 90.154 89.54 90.5225C89.9996 90.8882 90.5386 91.2286 91.1569 91.5436C92.1976 92.0739 93.1309 92.4048 93.9568 92.5363C94.7826 92.6677 95.5056 92.6283 96.1256 92.4182C96.7608 92.2157 97.3124 91.8786 97.7808 91.407C98.249 90.9354 98.6534 90.3655 98.9939 89.6972ZM87.5068 72.4215L94.0223 75.7413L82.0678 99.2033L75.5523 95.8835L87.5068 72.4215Z" fill="#609926"/>
</svg>
